<mxfile host="app.diagrams.net" modified="2024-01-24T17:55:48.405Z" agent="Mozilla/5.0 (Windows NT 10.0; Win64; x64) AppleWebKit/537.36 (KHTML, like Gecko) Chrome/120.0.0.0 Safari/537.36" etag="kql4UxwVuXbSF2UG4Z7J" version="23.0.1" type="device">
  <diagram name="Page-1" id="MSwrph2fDFesN9oIkVDd">
    <mxGraphModel dx="882" dy="578" grid="1" gridSize="10" guides="1" tooltips="1" connect="1" arrows="1" fold="1" page="1" pageScale="1" pageWidth="1169" pageHeight="827" math="0" shadow="0">
      <root>
        <mxCell id="0" />
        <mxCell id="1" parent="0" />
        <mxCell id="PnxerrXb5VSLIQRsMcsY-1" value="ls -l|&quot;grep a&quot;&amp;gt;outfile" style="rounded=1;whiteSpace=wrap;html=1;fillColor=#d5e8d4;strokeColor=#82b366;" parent="1" vertex="1">
          <mxGeometry x="40" y="120" width="120" height="40" as="geometry" />
        </mxCell>
        <mxCell id="PnxerrXb5VSLIQRsMcsY-3" value="" style="endArrow=classic;html=1;rounded=0;exitX=1;exitY=0.5;exitDx=0;exitDy=0;entryX=0;entryY=0.25;entryDx=0;entryDy=0;" parent="1" source="PnxerrXb5VSLIQRsMcsY-1" target="PnxerrXb5VSLIQRsMcsY-4" edge="1">
          <mxGeometry width="50" height="50" relative="1" as="geometry">
            <mxPoint x="390" y="170" as="sourcePoint" />
            <mxPoint x="240" y="100" as="targetPoint" />
          </mxGeometry>
        </mxCell>
        <mxCell id="PnxerrXb5VSLIQRsMcsY-4" value="" style="rounded=0;whiteSpace=wrap;html=1;fillColor=#f5f5f5;strokeColor=#666666;fontColor=#333333;" parent="1" vertex="1">
          <mxGeometry x="240" y="40" width="400" height="400" as="geometry" />
        </mxCell>
        <mxCell id="PnxerrXb5VSLIQRsMcsY-6" value="&lt;div&gt;&lt;span style=&quot;background-color: initial;&quot;&gt;Allocates pointer size of&amp;nbsp;&lt;/span&gt;&lt;span style=&quot;background-color: initial;&quot;&gt;(input + n&lt;sub&gt;operators&lt;/sub&gt;&amp;nbsp;x 2)&lt;/span&gt;&lt;/div&gt;" style="text;html=1;strokeColor=none;fillColor=none;align=center;verticalAlign=middle;whiteSpace=wrap;rounded=0;" parent="1" vertex="1">
          <mxGeometry x="250" y="80" width="145" height="30" as="geometry" />
        </mxCell>
        <mxCell id="PnxerrXb5VSLIQRsMcsY-7" value="LEXER" style="text;html=1;strokeColor=none;fillColor=none;align=center;verticalAlign=middle;whiteSpace=wrap;rounded=0;" parent="1" vertex="1">
          <mxGeometry x="240" y="40" width="60" height="30" as="geometry" />
        </mxCell>
        <mxCell id="PnxerrXb5VSLIQRsMcsY-8" value="ls -l|&quot;grep a&quot;&amp;gt;outfile" style="rounded=1;whiteSpace=wrap;html=1;fillColor=#d5e8d4;strokeColor=#82b366;" parent="1" vertex="1">
          <mxGeometry x="262.5" y="120" width="120" height="40" as="geometry" />
        </mxCell>
        <mxCell id="PnxerrXb5VSLIQRsMcsY-11" value="" style="rounded=1;whiteSpace=wrap;html=1;fillColor=#dae8fc;strokeColor=#6c8ebf;" parent="1" vertex="1">
          <mxGeometry x="257.5" y="170" width="130" height="40" as="geometry" />
        </mxCell>
        <mxCell id="PnxerrXb5VSLIQRsMcsY-12" value="ls -l | &quot;grep a&quot; &amp;gt; outfile" style="rounded=1;whiteSpace=wrap;html=1;fillColor=#dae8fc;strokeColor=#6c8ebf;" parent="1" vertex="1">
          <mxGeometry x="442" y="170" width="130" height="40" as="geometry" />
        </mxCell>
        <mxCell id="PnxerrXb5VSLIQRsMcsY-14" value="Copies input to allocated space, adding a space before and after each operator, respecting &quot; and &#39;" style="text;html=1;strokeColor=none;fillColor=none;align=center;verticalAlign=middle;whiteSpace=wrap;rounded=0;" parent="1" vertex="1">
          <mxGeometry x="414" y="65" width="186" height="60" as="geometry" />
        </mxCell>
        <mxCell id="PnxerrXb5VSLIQRsMcsY-16" value="ls -l|&quot;grep a&quot;&amp;gt;outfile" style="rounded=1;whiteSpace=wrap;html=1;fillColor=#d5e8d4;strokeColor=#82b366;" parent="1" vertex="1">
          <mxGeometry x="447" y="120" width="120" height="40" as="geometry" />
        </mxCell>
        <mxCell id="PnxerrXb5VSLIQRsMcsY-20" value="" style="endArrow=classic;html=1;rounded=0;exitX=1;exitY=0.5;exitDx=0;exitDy=0;entryX=0;entryY=0.5;entryDx=0;entryDy=0;" parent="1" source="PnxerrXb5VSLIQRsMcsY-6" target="PnxerrXb5VSLIQRsMcsY-14" edge="1">
          <mxGeometry width="50" height="50" relative="1" as="geometry">
            <mxPoint x="390" y="200" as="sourcePoint" />
            <mxPoint x="440" y="150" as="targetPoint" />
          </mxGeometry>
        </mxCell>
        <mxCell id="PnxerrXb5VSLIQRsMcsY-22" value="Splits the new string into an array, using space as the separator" style="text;html=1;strokeColor=none;fillColor=none;align=center;verticalAlign=middle;whiteSpace=wrap;rounded=0;" parent="1" vertex="1">
          <mxGeometry x="437" y="220" width="140" height="50" as="geometry" />
        </mxCell>
        <mxCell id="PnxerrXb5VSLIQRsMcsY-23" value="" style="endArrow=classic;html=1;rounded=0;exitX=1;exitY=0.5;exitDx=0;exitDy=0;entryX=1;entryY=0.5;entryDx=0;entryDy=0;" parent="1" source="PnxerrXb5VSLIQRsMcsY-14" target="PnxerrXb5VSLIQRsMcsY-22" edge="1">
          <mxGeometry width="50" height="50" relative="1" as="geometry">
            <mxPoint x="680" y="150" as="sourcePoint" />
            <mxPoint x="730" y="100" as="targetPoint" />
            <Array as="points">
              <mxPoint x="620" y="95" />
              <mxPoint x="620" y="245" />
            </Array>
          </mxGeometry>
        </mxCell>
        <mxCell id="PnxerrXb5VSLIQRsMcsY-25" value="ls -l | &quot;grep a&quot; &amp;gt; outfile" style="rounded=1;whiteSpace=wrap;html=1;fillColor=#dae8fc;strokeColor=#6c8ebf;" parent="1" vertex="1">
          <mxGeometry x="442" y="270" width="130" height="40" as="geometry" />
        </mxCell>
        <mxCell id="PnxerrXb5VSLIQRsMcsY-26" value="ls&lt;div&gt;-l&lt;/div&gt;&lt;div&gt;|&lt;/div&gt;&lt;div&gt;grep a&lt;/div&gt;&lt;div&gt;&amp;gt;&lt;/div&gt;&lt;div&gt;outfile&lt;/div&gt;" style="rounded=1;whiteSpace=wrap;html=1;fillColor=#e1d5e7;strokeColor=#9673a6;" parent="1" vertex="1">
          <mxGeometry x="477" y="320" width="60" height="110" as="geometry" />
        </mxCell>
        <mxCell id="PnxerrXb5VSLIQRsMcsY-27" value="" style="endArrow=classic;html=1;rounded=0;exitX=1;exitY=0.5;exitDx=0;exitDy=0;entryX=1;entryY=0.5;entryDx=0;entryDy=0;fillColor=#e1d5e7;strokeColor=#9673a6;" parent="1" source="PnxerrXb5VSLIQRsMcsY-25" target="PnxerrXb5VSLIQRsMcsY-26" edge="1">
          <mxGeometry relative="1" as="geometry">
            <mxPoint x="360" y="280" as="sourcePoint" />
            <mxPoint x="460" y="280" as="targetPoint" />
            <Array as="points">
              <mxPoint x="590" y="290" />
              <mxPoint x="590" y="375" />
            </Array>
          </mxGeometry>
        </mxCell>
        <mxCell id="PnxerrXb5VSLIQRsMcsY-28" value="&amp;nbsp;split&amp;nbsp;" style="edgeLabel;resizable=0;html=1;align=center;verticalAlign=middle;labelBackgroundColor=#e1d5e7;" parent="PnxerrXb5VSLIQRsMcsY-27" connectable="0" vertex="1">
          <mxGeometry relative="1" as="geometry" />
        </mxCell>
        <mxCell id="PnxerrXb5VSLIQRsMcsY-29" value="Frees the allocated memory and returns the array" style="text;html=1;strokeColor=none;fillColor=none;align=center;verticalAlign=middle;whiteSpace=wrap;rounded=0;" parent="1" vertex="1">
          <mxGeometry x="257.5" y="220" width="122.5" height="50" as="geometry" />
        </mxCell>
        <mxCell id="PnxerrXb5VSLIQRsMcsY-30" value="" style="endArrow=classic;html=1;rounded=0;entryX=1;entryY=0.5;entryDx=0;entryDy=0;exitX=0;exitY=0.5;exitDx=0;exitDy=0;" parent="1" source="PnxerrXb5VSLIQRsMcsY-22" target="PnxerrXb5VSLIQRsMcsY-29" edge="1">
          <mxGeometry width="50" height="50" relative="1" as="geometry">
            <mxPoint x="390" y="300" as="sourcePoint" />
            <mxPoint x="440" y="250" as="targetPoint" />
          </mxGeometry>
        </mxCell>
        <mxCell id="PnxerrXb5VSLIQRsMcsY-31" value="ls&lt;div&gt;-l&lt;/div&gt;&lt;div&gt;|&lt;/div&gt;&lt;div&gt;grep a&lt;/div&gt;&lt;div&gt;&amp;gt;&lt;/div&gt;&lt;div&gt;outfile&lt;/div&gt;" style="rounded=1;whiteSpace=wrap;html=1;fillColor=#e1d5e7;strokeColor=#9673a6;" parent="1" vertex="1">
          <mxGeometry x="292.5" y="280" width="60" height="110" as="geometry" />
        </mxCell>
        <mxCell id="PnxerrXb5VSLIQRsMcsY-32" value="" style="endArrow=classic;html=1;rounded=0;exitX=1;exitY=0.25;exitDx=0;exitDy=0;entryX=0;entryY=0.5;entryDx=0;entryDy=0;" parent="1" source="PnxerrXb5VSLIQRsMcsY-4" target="PnxerrXb5VSLIQRsMcsY-33" edge="1">
          <mxGeometry width="50" height="50" relative="1" as="geometry">
            <mxPoint x="390" y="300" as="sourcePoint" />
            <mxPoint x="160" y="360" as="targetPoint" />
          </mxGeometry>
        </mxCell>
        <mxCell id="PnxerrXb5VSLIQRsMcsY-33" value="ls&lt;div&gt;-l&lt;/div&gt;&lt;div&gt;|&lt;/div&gt;&lt;div&gt;grep a&lt;/div&gt;&lt;div&gt;&amp;gt;&lt;/div&gt;&lt;div&gt;outfile&lt;/div&gt;" style="rounded=1;whiteSpace=wrap;html=1;fillColor=#e1d5e7;strokeColor=#9673a6;" parent="1" vertex="1">
          <mxGeometry x="710" y="85" width="60" height="110" as="geometry" />
        </mxCell>
        <mxCell id="PnxerrXb5VSLIQRsMcsY-34" value="" style="endArrow=classic;html=1;rounded=0;exitX=1;exitY=0.5;exitDx=0;exitDy=0;entryX=-0.001;entryY=0.166;entryDx=0;entryDy=0;entryPerimeter=0;" parent="1" source="PnxerrXb5VSLIQRsMcsY-33" target="PnxerrXb5VSLIQRsMcsY-35" edge="1">
          <mxGeometry width="50" height="50" relative="1" as="geometry">
            <mxPoint x="860" y="150" as="sourcePoint" />
            <mxPoint x="840" y="140" as="targetPoint" />
          </mxGeometry>
        </mxCell>
        <mxCell id="PnxerrXb5VSLIQRsMcsY-35" value="" style="rounded=0;whiteSpace=wrap;html=1;fillColor=#f5f5f5;strokeColor=#666666;fontColor=#333333;" parent="1" vertex="1">
          <mxGeometry x="840" y="40" width="540" height="600" as="geometry" />
        </mxCell>
        <mxCell id="PnxerrXb5VSLIQRsMcsY-36" value="PARSER" style="text;html=1;strokeColor=none;fillColor=none;align=center;verticalAlign=middle;whiteSpace=wrap;rounded=0;" parent="1" vertex="1">
          <mxGeometry x="840" y="40" width="60" height="30" as="geometry" />
        </mxCell>
        <mxCell id="PnxerrXb5VSLIQRsMcsY-37" value="&lt;div&gt;Creates and initializes the first node of a linked list&lt;/div&gt;" style="text;html=1;strokeColor=none;fillColor=none;align=center;verticalAlign=middle;whiteSpace=wrap;rounded=0;" parent="1" vertex="1">
          <mxGeometry x="890" y="80" width="145" height="30" as="geometry" />
        </mxCell>
        <mxCell id="PnxerrXb5VSLIQRsMcsY-38" value="&lt;span style=&quot;background-color: initial;&quot;&gt;{&lt;/span&gt;&lt;span style=&quot;background-color: initial; white-space: pre;&quot;&gt;&#x9;&lt;/span&gt;&lt;span style=&quot;background-color: initial;&quot;&gt;char&lt;/span&gt;&lt;span style=&quot;background-color: initial; white-space: pre;&quot;&gt;&#x9;&lt;/span&gt;&lt;span style=&quot;background-color: initial;&quot;&gt;*cmd &lt;/span&gt;&lt;span style=&quot;background-color: initial; white-space: pre;&quot;&gt;&#x9;&lt;/span&gt;&lt;span style=&quot;background-color: initial;&quot;&gt;= NULL&lt;/span&gt;&lt;br&gt;&lt;div style=&quot;&quot;&gt;&lt;span style=&quot;background-color: initial;&quot;&gt;&lt;span style=&quot;white-space: pre;&quot;&gt;&#x9;&lt;/span&gt;char&lt;span style=&quot;white-space: pre;&quot;&gt;&#x9;&lt;/span&gt;**args &lt;span style=&quot;white-space: pre;&quot;&gt;&#x9;&lt;/span&gt;= NULL&lt;/span&gt;&lt;/div&gt;&lt;div style=&quot;&quot;&gt;&lt;span style=&quot;white-space: pre;&quot;&gt;&#x9;&lt;/span&gt;int&lt;span style=&quot;white-space: pre;&quot;&gt;&#x9;&lt;/span&gt;fd[2] &lt;span style=&quot;white-space: pre;&quot;&gt;&#x9;&lt;/span&gt;= 0, 1&lt;/div&gt;&lt;div style=&quot;&quot;&gt;&lt;span style=&quot;white-space: pre;&quot;&gt;&#x9;&lt;/span&gt;int&lt;span style=&quot;white-space: pre;&quot;&gt;&#x9;&lt;/span&gt;pipe_f&amp;nbsp;&lt;span style=&quot;white-space: pre;&quot;&gt;&#x9;&lt;/span&gt;= 0&lt;/div&gt;&lt;div style=&quot;&quot;&gt;&lt;span style=&quot;white-space: pre;&quot;&gt;&#x9;&lt;/span&gt;char&lt;span style=&quot;white-space: pre;&quot;&gt;&#x9;&lt;/span&gt;*infile &lt;span style=&quot;white-space: pre;&quot;&gt;&#x9;&lt;/span&gt;= NULL&lt;/div&gt;&lt;div style=&quot;&quot;&gt;&lt;span style=&quot;white-space: pre;&quot;&gt;&#x9;&lt;/span&gt;char&lt;span style=&quot;white-space: pre;&quot;&gt;&#x9;&lt;/span&gt;*outfile &lt;span style=&quot;white-space: pre;&quot;&gt;&#x9;&lt;/span&gt;= NULL&amp;nbsp;&lt;/div&gt;&lt;div style=&quot;&quot;&gt;&lt;span style=&quot;background-color: initial;&quot;&gt;&lt;span style=&quot;white-space: pre;&quot;&gt;&#x9;&lt;/span&gt;struct name *next&lt;/span&gt;&lt;/div&gt;&lt;div style=&quot;&quot;&gt;&lt;span style=&quot;background-color: initial;&quot;&gt;&lt;span style=&quot;white-space: pre;&quot;&gt;&#x9;&lt;/span&gt;struct name *prev&lt;span style=&quot;white-space: pre;&quot;&gt;&#x9;&lt;span style=&quot;white-space: pre;&quot;&gt;&#x9;&lt;/span&gt;&lt;/span&gt;}&lt;/span&gt;&lt;/div&gt;" style="rounded=1;whiteSpace=wrap;html=1;align=left;fillColor=#ffe6cc;strokeColor=#d79b00;" parent="1" vertex="1">
          <mxGeometry x="930" y="120" width="170" height="140" as="geometry" />
        </mxCell>
        <mxCell id="PnxerrXb5VSLIQRsMcsY-39" value="ls&lt;div&gt;-l&lt;/div&gt;&lt;div&gt;|&lt;/div&gt;&lt;div&gt;&quot;grep a&quot;&lt;/div&gt;&lt;div&gt;&amp;gt;&lt;/div&gt;&lt;div&gt;outfile&lt;/div&gt;" style="rounded=1;whiteSpace=wrap;html=1;fillColor=#e1d5e7;strokeColor=#9673a6;" parent="1" vertex="1">
          <mxGeometry x="1120" y="120" width="60" height="110" as="geometry" />
        </mxCell>
        <mxCell id="PnxerrXb5VSLIQRsMcsY-40" value="Assigns each token to it&#39;s respective variable until the end or a pipe ( | ) is found. If pipe is found, pipe_f is set to 1" style="text;html=1;strokeColor=none;fillColor=none;align=center;verticalAlign=middle;whiteSpace=wrap;rounded=0;" parent="1" vertex="1">
          <mxGeometry x="1120" y="80" width="230" height="30" as="geometry" />
        </mxCell>
        <mxCell id="PnxerrXb5VSLIQRsMcsY-42" value="ls&lt;div&gt;-l&lt;/div&gt;&lt;div&gt;|&lt;/div&gt;&lt;div&gt;&quot;grep a&quot;&lt;/div&gt;&lt;div&gt;&amp;gt;&lt;/div&gt;&lt;div&gt;outfile&lt;/div&gt;" style="rounded=1;whiteSpace=wrap;html=1;fillColor=#e1d5e7;strokeColor=#9673a6;" parent="1" vertex="1">
          <mxGeometry x="860" y="120" width="60" height="110" as="geometry" />
        </mxCell>
        <mxCell id="PnxerrXb5VSLIQRsMcsY-43" value="" style="endArrow=classic;html=1;rounded=0;exitX=1;exitY=0.5;exitDx=0;exitDy=0;entryX=0;entryY=0.5;entryDx=0;entryDy=0;" parent="1" source="PnxerrXb5VSLIQRsMcsY-37" target="PnxerrXb5VSLIQRsMcsY-40" edge="1">
          <mxGeometry width="50" height="50" relative="1" as="geometry">
            <mxPoint x="930" y="250" as="sourcePoint" />
            <mxPoint x="980" y="200" as="targetPoint" />
          </mxGeometry>
        </mxCell>
        <mxCell id="PnxerrXb5VSLIQRsMcsY-47" value="&lt;span style=&quot;background-color: initial;&quot;&gt;{&lt;/span&gt;&lt;span style=&quot;background-color: initial; white-space: pre;&quot;&gt;&#x9;&lt;/span&gt;&lt;span style=&quot;background-color: initial;&quot;&gt;char&lt;/span&gt;&lt;span style=&quot;background-color: initial; white-space: pre;&quot;&gt;&#x9;&lt;/span&gt;&lt;span style=&quot;background-color: initial;&quot;&gt;*cmd &lt;/span&gt;&lt;span style=&quot;background-color: initial; white-space: pre;&quot;&gt;&#x9;&lt;/span&gt;&lt;span style=&quot;background-color: initial;&quot;&gt;= ls&lt;/span&gt;&lt;br&gt;&lt;div style=&quot;&quot;&gt;&lt;span style=&quot;background-color: initial;&quot;&gt;&lt;span style=&quot;white-space: pre;&quot;&gt;&#x9;&lt;/span&gt;char&lt;span style=&quot;white-space: pre;&quot;&gt;&#x9;&lt;/span&gt;**args &lt;span style=&quot;white-space: pre;&quot;&gt;&#x9;&lt;/span&gt;= -l&lt;/span&gt;&lt;/div&gt;&lt;div style=&quot;&quot;&gt;&lt;span style=&quot;white-space: pre;&quot;&gt;&#x9;&lt;/span&gt;int&lt;span style=&quot;white-space: pre;&quot;&gt;&#x9;&lt;/span&gt;fd[2] &lt;span style=&quot;white-space: pre;&quot;&gt;&#x9;&lt;/span&gt;= 0, 1&lt;/div&gt;&lt;div style=&quot;&quot;&gt;&lt;span style=&quot;white-space: pre;&quot;&gt;&#x9;&lt;/span&gt;int&lt;span style=&quot;white-space: pre;&quot;&gt;&#x9;&lt;/span&gt;pipe_f&amp;nbsp;&lt;span style=&quot;white-space: pre;&quot;&gt;&#x9;&lt;/span&gt;= 1&lt;/div&gt;&lt;div style=&quot;&quot;&gt;&lt;span style=&quot;white-space: pre;&quot;&gt;&#x9;&lt;/span&gt;char&lt;span style=&quot;white-space: pre;&quot;&gt;&#x9;&lt;/span&gt;*infile &lt;span style=&quot;white-space: pre;&quot;&gt;&#x9;&lt;/span&gt;= NULL&lt;/div&gt;&lt;div style=&quot;&quot;&gt;&lt;span style=&quot;white-space: pre;&quot;&gt;&#x9;&lt;/span&gt;char&lt;span style=&quot;white-space: pre;&quot;&gt;&#x9;&lt;/span&gt;*outfile &lt;span style=&quot;white-space: pre;&quot;&gt;&#x9;&lt;/span&gt;= NULL&amp;nbsp;&lt;/div&gt;&lt;div style=&quot;&quot;&gt;&lt;span style=&quot;background-color: initial;&quot;&gt;&lt;span style=&quot;white-space: pre;&quot;&gt;&#x9;&lt;/span&gt;struct name *next&lt;/span&gt;&lt;/div&gt;&lt;div style=&quot;&quot;&gt;&lt;span style=&quot;background-color: initial;&quot;&gt;&lt;span style=&quot;white-space: pre;&quot;&gt;&#x9;&lt;/span&gt;struct name *prev&lt;span style=&quot;white-space: pre;&quot;&gt;&#x9;&lt;span style=&quot;white-space: pre;&quot;&gt;&#x9;&lt;/span&gt;&lt;/span&gt;}&lt;/span&gt;&lt;/div&gt;" style="rounded=1;whiteSpace=wrap;html=1;align=left;fillColor=#ffe6cc;strokeColor=#d79b00;" parent="1" vertex="1">
          <mxGeometry x="1190" y="120" width="170" height="140" as="geometry" />
        </mxCell>
        <mxCell id="PnxerrXb5VSLIQRsMcsY-44" value="" style="endArrow=classic;html=1;rounded=0;fillColor=#ffe6cc;strokeColor=#d79b00;" parent="1" edge="1">
          <mxGeometry width="50" height="50" relative="1" as="geometry">
            <mxPoint x="1160" y="140" as="sourcePoint" />
            <mxPoint x="1210" y="139.5" as="targetPoint" />
          </mxGeometry>
        </mxCell>
        <mxCell id="PnxerrXb5VSLIQRsMcsY-45" value="" style="endArrow=classic;html=1;rounded=0;fillColor=#ffe6cc;strokeColor=#d79b00;" parent="1" edge="1">
          <mxGeometry width="50" height="50" relative="1" as="geometry">
            <mxPoint x="1160" y="155" as="sourcePoint" />
            <mxPoint x="1210" y="155" as="targetPoint" />
          </mxGeometry>
        </mxCell>
        <mxCell id="PnxerrXb5VSLIQRsMcsY-46" value="" style="endArrow=classic;html=1;rounded=0;fillColor=#ffe6cc;strokeColor=#d79b00;" parent="1" edge="1">
          <mxGeometry width="50" height="50" relative="1" as="geometry">
            <mxPoint x="1160" y="170" as="sourcePoint" />
            <mxPoint x="1210" y="180" as="targetPoint" />
          </mxGeometry>
        </mxCell>
        <mxCell id="PnxerrXb5VSLIQRsMcsY-48" value="" style="endArrow=classic;html=1;rounded=0;exitX=1;exitY=0.5;exitDx=0;exitDy=0;entryX=1;entryY=0.5;entryDx=0;entryDy=0;" parent="1" source="PnxerrXb5VSLIQRsMcsY-40" target="PnxerrXb5VSLIQRsMcsY-49" edge="1">
          <mxGeometry width="50" height="50" relative="1" as="geometry">
            <mxPoint x="930" y="230" as="sourcePoint" />
            <mxPoint x="1400" y="290" as="targetPoint" />
            <Array as="points">
              <mxPoint x="1370" y="95" />
              <mxPoint x="1370" y="305" />
            </Array>
          </mxGeometry>
        </mxCell>
        <mxCell id="PnxerrXb5VSLIQRsMcsY-49" value="When a pipe is found, a new node is created and the process repeats until there are no more tokens" style="text;html=1;strokeColor=none;fillColor=none;align=center;verticalAlign=middle;whiteSpace=wrap;rounded=0;" parent="1" vertex="1">
          <mxGeometry x="1120" y="270" width="230" height="70" as="geometry" />
        </mxCell>
        <mxCell id="PnxerrXb5VSLIQRsMcsY-50" value="ls&lt;div&gt;-l&lt;/div&gt;&lt;div&gt;|&lt;/div&gt;&lt;div&gt;&quot;grep a&quot;&lt;/div&gt;&lt;div&gt;&amp;gt;&lt;/div&gt;&lt;div&gt;outfile&lt;/div&gt;" style="rounded=1;whiteSpace=wrap;html=1;fillColor=#e1d5e7;strokeColor=#9673a6;" parent="1" vertex="1">
          <mxGeometry x="1120" y="350" width="60" height="110" as="geometry" />
        </mxCell>
        <mxCell id="PnxerrXb5VSLIQRsMcsY-51" value="&lt;span style=&quot;background-color: initial;&quot;&gt;{&lt;/span&gt;&lt;span style=&quot;background-color: initial; white-space: pre;&quot;&gt;&#x9;&lt;/span&gt;&lt;span style=&quot;background-color: initial;&quot;&gt;char&lt;/span&gt;&lt;span style=&quot;background-color: initial; white-space: pre;&quot;&gt;&#x9;&lt;/span&gt;&lt;span style=&quot;background-color: initial;&quot;&gt;*cmd &lt;/span&gt;&lt;span style=&quot;background-color: initial; white-space: pre;&quot;&gt;&#x9;&lt;/span&gt;&lt;span style=&quot;background-color: initial;&quot;&gt;= ls&lt;/span&gt;&lt;br&gt;&lt;div style=&quot;&quot;&gt;&lt;span style=&quot;background-color: initial;&quot;&gt;&lt;span style=&quot;white-space: pre;&quot;&gt;&#x9;&lt;/span&gt;char&lt;span style=&quot;white-space: pre;&quot;&gt;&#x9;&lt;/span&gt;**args &lt;span style=&quot;white-space: pre;&quot;&gt;&#x9;&lt;/span&gt;= -l&lt;/span&gt;&lt;/div&gt;&lt;div style=&quot;&quot;&gt;&lt;span style=&quot;white-space: pre;&quot;&gt;&#x9;&lt;/span&gt;int&lt;span style=&quot;white-space: pre;&quot;&gt;&#x9;&lt;/span&gt;fd[2] &lt;span style=&quot;white-space: pre;&quot;&gt;&#x9;&lt;/span&gt;= 0, 1&lt;/div&gt;&lt;div style=&quot;&quot;&gt;&lt;span style=&quot;white-space: pre;&quot;&gt;&#x9;&lt;/span&gt;int&lt;span style=&quot;white-space: pre;&quot;&gt;&#x9;&lt;/span&gt;pipe_f&amp;nbsp;&lt;span style=&quot;white-space: pre;&quot;&gt;&#x9;&lt;/span&gt;= 1&lt;/div&gt;&lt;div style=&quot;&quot;&gt;&lt;span style=&quot;white-space: pre;&quot;&gt;&#x9;&lt;/span&gt;char&lt;span style=&quot;white-space: pre;&quot;&gt;&#x9;&lt;/span&gt;*infile &lt;span style=&quot;white-space: pre;&quot;&gt;&#x9;&lt;/span&gt;= NULL&lt;/div&gt;&lt;div style=&quot;&quot;&gt;&lt;span style=&quot;white-space: pre;&quot;&gt;&#x9;&lt;/span&gt;char&lt;span style=&quot;white-space: pre;&quot;&gt;&#x9;&lt;/span&gt;*outfile &lt;span style=&quot;white-space: pre;&quot;&gt;&#x9;&lt;/span&gt;= NULL&amp;nbsp;&lt;/div&gt;&lt;div style=&quot;&quot;&gt;&lt;span style=&quot;background-color: initial;&quot;&gt;&lt;span style=&quot;white-space: pre;&quot;&gt;&#x9;&lt;/span&gt;struct name *next&lt;/span&gt;&lt;/div&gt;&lt;div style=&quot;&quot;&gt;&lt;span style=&quot;background-color: initial;&quot;&gt;&lt;span style=&quot;white-space: pre;&quot;&gt;&#x9;&lt;/span&gt;struct name *prev&lt;span style=&quot;white-space: pre;&quot;&gt;&#x9;&lt;span style=&quot;white-space: pre;&quot;&gt;&#x9;&lt;/span&gt;&lt;/span&gt;}&lt;/span&gt;&lt;/div&gt;" style="rounded=1;whiteSpace=wrap;html=1;align=left;fillColor=#ffe6cc;strokeColor=#d79b00;" parent="1" vertex="1">
          <mxGeometry x="1190" y="335" width="170" height="140" as="geometry" />
        </mxCell>
        <mxCell id="PnxerrXb5VSLIQRsMcsY-52" value="&lt;span style=&quot;background-color: initial;&quot;&gt;{&lt;/span&gt;&lt;span style=&quot;background-color: initial; white-space: pre;&quot;&gt;&#x9;&lt;/span&gt;&lt;span style=&quot;background-color: initial;&quot;&gt;char&lt;/span&gt;&lt;span style=&quot;background-color: initial; white-space: pre;&quot;&gt;&#x9;&lt;/span&gt;&lt;span style=&quot;background-color: initial;&quot;&gt;*cmd &lt;/span&gt;&lt;span style=&quot;background-color: initial; white-space: pre;&quot;&gt;&#x9;&lt;/span&gt;&lt;span style=&quot;background-color: initial;&quot;&gt;= grep a&lt;/span&gt;&lt;br&gt;&lt;div style=&quot;&quot;&gt;&lt;span style=&quot;background-color: initial;&quot;&gt;&lt;span style=&quot;white-space: pre;&quot;&gt;&#x9;&lt;/span&gt;char&lt;span style=&quot;white-space: pre;&quot;&gt;&#x9;&lt;/span&gt;**args &lt;span style=&quot;white-space: pre;&quot;&gt;&#x9;&lt;/span&gt;= NULL&lt;/span&gt;&lt;/div&gt;&lt;div style=&quot;&quot;&gt;&lt;span style=&quot;white-space: pre;&quot;&gt;&#x9;&lt;/span&gt;int&lt;span style=&quot;white-space: pre;&quot;&gt;&#x9;&lt;/span&gt;fd[2] &lt;span style=&quot;white-space: pre;&quot;&gt;&#x9;&lt;/span&gt;= 0, 1&lt;/div&gt;&lt;div style=&quot;&quot;&gt;&lt;span style=&quot;white-space: pre;&quot;&gt;&#x9;&lt;/span&gt;int&lt;span style=&quot;white-space: pre;&quot;&gt;&#x9;&lt;/span&gt;pipe_f&amp;nbsp;&lt;span style=&quot;white-space: pre;&quot;&gt;&#x9;&lt;/span&gt;= 0&lt;/div&gt;&lt;div style=&quot;&quot;&gt;&lt;span style=&quot;white-space: pre;&quot;&gt;&#x9;&lt;/span&gt;char&lt;span style=&quot;white-space: pre;&quot;&gt;&#x9;&lt;/span&gt;*infile &lt;span style=&quot;white-space: pre;&quot;&gt;&#x9;&lt;/span&gt;= NULL&lt;/div&gt;&lt;div style=&quot;&quot;&gt;&lt;span style=&quot;white-space: pre;&quot;&gt;&#x9;&lt;/span&gt;char&lt;span style=&quot;white-space: pre;&quot;&gt;&#x9;&lt;/span&gt;*outfile &lt;span style=&quot;white-space: pre;&quot;&gt;&#x9;&lt;/span&gt;= outfile&lt;/div&gt;&lt;div style=&quot;&quot;&gt;&lt;span style=&quot;background-color: initial;&quot;&gt;&lt;span style=&quot;white-space: pre;&quot;&gt;&#x9;&lt;/span&gt;struct name *next&lt;/span&gt;&lt;/div&gt;&lt;div style=&quot;&quot;&gt;&lt;span style=&quot;background-color: initial;&quot;&gt;&lt;span style=&quot;white-space: pre;&quot;&gt;&#x9;&lt;/span&gt;struct name *prev&lt;span style=&quot;white-space: pre;&quot;&gt;&#x9;&lt;span style=&quot;white-space: pre;&quot;&gt;&#x9;&lt;/span&gt;&lt;/span&gt;}&lt;/span&gt;&lt;/div&gt;" style="rounded=1;whiteSpace=wrap;html=1;align=left;fillColor=#ffe6cc;strokeColor=#d79b00;" parent="1" vertex="1">
          <mxGeometry x="1190" y="480" width="170" height="140" as="geometry" />
        </mxCell>
        <mxCell id="PnxerrXb5VSLIQRsMcsY-53" value="Frees the array (and the strings inside it) given by the lexer. Returns the first node" style="text;html=1;strokeColor=none;fillColor=none;align=center;verticalAlign=middle;whiteSpace=wrap;rounded=0;" parent="1" vertex="1">
          <mxGeometry x="870" y="285" width="230" height="40" as="geometry" />
        </mxCell>
        <mxCell id="PnxerrXb5VSLIQRsMcsY-54" value="&lt;span style=&quot;background-color: initial;&quot;&gt;{&lt;/span&gt;&lt;span style=&quot;background-color: initial; white-space: pre;&quot;&gt;&#x9;&lt;/span&gt;&lt;span style=&quot;background-color: initial;&quot;&gt;char&lt;/span&gt;&lt;span style=&quot;background-color: initial; white-space: pre;&quot;&gt;&#x9;&lt;/span&gt;&lt;span style=&quot;background-color: initial;&quot;&gt;*cmd &lt;/span&gt;&lt;span style=&quot;background-color: initial; white-space: pre;&quot;&gt;&#x9;&lt;/span&gt;&lt;span style=&quot;background-color: initial;&quot;&gt;= ls&lt;/span&gt;&lt;br&gt;&lt;div style=&quot;&quot;&gt;&lt;span style=&quot;background-color: initial;&quot;&gt;&lt;span style=&quot;white-space: pre;&quot;&gt;&#x9;&lt;/span&gt;char&lt;span style=&quot;white-space: pre;&quot;&gt;&#x9;&lt;/span&gt;**args &lt;span style=&quot;white-space: pre;&quot;&gt;&#x9;&lt;/span&gt;= -l&lt;/span&gt;&lt;/div&gt;&lt;div style=&quot;&quot;&gt;&lt;span style=&quot;white-space: pre;&quot;&gt;&#x9;&lt;/span&gt;int&lt;span style=&quot;white-space: pre;&quot;&gt;&#x9;&lt;/span&gt;fd[2] &lt;span style=&quot;white-space: pre;&quot;&gt;&#x9;&lt;/span&gt;= 0, 1&lt;/div&gt;&lt;div style=&quot;&quot;&gt;&lt;span style=&quot;white-space: pre;&quot;&gt;&#x9;&lt;/span&gt;int&lt;span style=&quot;white-space: pre;&quot;&gt;&#x9;&lt;/span&gt;pipe_f&amp;nbsp;&lt;span style=&quot;white-space: pre;&quot;&gt;&#x9;&lt;/span&gt;= 1&lt;/div&gt;&lt;div style=&quot;&quot;&gt;&lt;span style=&quot;white-space: pre;&quot;&gt;&#x9;&lt;/span&gt;char&lt;span style=&quot;white-space: pre;&quot;&gt;&#x9;&lt;/span&gt;*infile &lt;span style=&quot;white-space: pre;&quot;&gt;&#x9;&lt;/span&gt;= NULL&lt;/div&gt;&lt;div style=&quot;&quot;&gt;&lt;span style=&quot;white-space: pre;&quot;&gt;&#x9;&lt;/span&gt;char&lt;span style=&quot;white-space: pre;&quot;&gt;&#x9;&lt;/span&gt;*outfile &lt;span style=&quot;white-space: pre;&quot;&gt;&#x9;&lt;/span&gt;= NULL&amp;nbsp;&lt;/div&gt;&lt;div style=&quot;&quot;&gt;&lt;span style=&quot;background-color: initial;&quot;&gt;&lt;span style=&quot;white-space: pre;&quot;&gt;&#x9;&lt;/span&gt;struct name *next&lt;/span&gt;&lt;/div&gt;&lt;div style=&quot;&quot;&gt;&lt;span style=&quot;background-color: initial;&quot;&gt;&lt;span style=&quot;white-space: pre;&quot;&gt;&#x9;&lt;/span&gt;struct name *prev&lt;span style=&quot;white-space: pre;&quot;&gt;&#x9;&lt;span style=&quot;white-space: pre;&quot;&gt;&#x9;&lt;/span&gt;&lt;/span&gt;}&lt;/span&gt;&lt;/div&gt;" style="rounded=1;whiteSpace=wrap;html=1;align=left;fillColor=#ffe6cc;strokeColor=#d79b00;" parent="1" vertex="1">
          <mxGeometry x="900" y="335" width="170" height="140" as="geometry" />
        </mxCell>
        <mxCell id="PnxerrXb5VSLIQRsMcsY-55" value="&lt;span style=&quot;background-color: initial;&quot;&gt;{&lt;/span&gt;&lt;span style=&quot;background-color: initial; white-space: pre;&quot;&gt;&#x9;&lt;/span&gt;&lt;span style=&quot;background-color: initial;&quot;&gt;char&lt;/span&gt;&lt;span style=&quot;background-color: initial; white-space: pre;&quot;&gt;&#x9;&lt;/span&gt;&lt;span style=&quot;background-color: initial;&quot;&gt;*cmd &lt;/span&gt;&lt;span style=&quot;background-color: initial; white-space: pre;&quot;&gt;&#x9;&lt;/span&gt;&lt;span style=&quot;background-color: initial;&quot;&gt;= grep a&lt;/span&gt;&lt;br&gt;&lt;div style=&quot;&quot;&gt;&lt;span style=&quot;background-color: initial;&quot;&gt;&lt;span style=&quot;white-space: pre;&quot;&gt;&#x9;&lt;/span&gt;char&lt;span style=&quot;white-space: pre;&quot;&gt;&#x9;&lt;/span&gt;**args &lt;span style=&quot;white-space: pre;&quot;&gt;&#x9;&lt;/span&gt;= NULL&lt;/span&gt;&lt;/div&gt;&lt;div style=&quot;&quot;&gt;&lt;span style=&quot;white-space: pre;&quot;&gt;&#x9;&lt;/span&gt;int&lt;span style=&quot;white-space: pre;&quot;&gt;&#x9;&lt;/span&gt;fd[2] &lt;span style=&quot;white-space: pre;&quot;&gt;&#x9;&lt;/span&gt;= 0, 1&lt;/div&gt;&lt;div style=&quot;&quot;&gt;&lt;span style=&quot;white-space: pre;&quot;&gt;&#x9;&lt;/span&gt;int&lt;span style=&quot;white-space: pre;&quot;&gt;&#x9;&lt;/span&gt;pipe_f&amp;nbsp;&lt;span style=&quot;white-space: pre;&quot;&gt;&#x9;&lt;/span&gt;= 0&lt;/div&gt;&lt;div style=&quot;&quot;&gt;&lt;span style=&quot;white-space: pre;&quot;&gt;&#x9;&lt;/span&gt;char&lt;span style=&quot;white-space: pre;&quot;&gt;&#x9;&lt;/span&gt;*infile &lt;span style=&quot;white-space: pre;&quot;&gt;&#x9;&lt;/span&gt;= NULL&lt;/div&gt;&lt;div style=&quot;&quot;&gt;&lt;span style=&quot;white-space: pre;&quot;&gt;&#x9;&lt;/span&gt;char&lt;span style=&quot;white-space: pre;&quot;&gt;&#x9;&lt;/span&gt;*outfile &lt;span style=&quot;white-space: pre;&quot;&gt;&#x9;&lt;/span&gt;= outfile&lt;/div&gt;&lt;div style=&quot;&quot;&gt;&lt;span style=&quot;background-color: initial;&quot;&gt;&lt;span style=&quot;white-space: pre;&quot;&gt;&#x9;&lt;/span&gt;struct name *next&lt;/span&gt;&lt;/div&gt;&lt;div style=&quot;&quot;&gt;&lt;span style=&quot;background-color: initial;&quot;&gt;&lt;span style=&quot;white-space: pre;&quot;&gt;&#x9;&lt;/span&gt;struct name *prev&lt;span style=&quot;white-space: pre;&quot;&gt;&#x9;&lt;span style=&quot;white-space: pre;&quot;&gt;&#x9;&lt;/span&gt;&lt;/span&gt;}&lt;/span&gt;&lt;/div&gt;" style="rounded=1;whiteSpace=wrap;html=1;align=left;fillColor=#ffe6cc;strokeColor=#d79b00;" parent="1" vertex="1">
          <mxGeometry x="900" y="480" width="170" height="140" as="geometry" />
        </mxCell>
        <mxCell id="PnxerrXb5VSLIQRsMcsY-57" value="" style="endArrow=classic;html=1;rounded=0;entryX=1;entryY=0.5;entryDx=0;entryDy=0;exitX=0;exitY=0.5;exitDx=0;exitDy=0;" parent="1" source="PnxerrXb5VSLIQRsMcsY-49" target="PnxerrXb5VSLIQRsMcsY-53" edge="1">
          <mxGeometry width="50" height="50" relative="1" as="geometry">
            <mxPoint x="1030" y="430" as="sourcePoint" />
            <mxPoint x="1080" y="380" as="targetPoint" />
          </mxGeometry>
        </mxCell>
        <mxCell id="PnxerrXb5VSLIQRsMcsY-58" value="" style="endArrow=classic;html=1;rounded=0;exitX=1;exitY=0.5;exitDx=0;exitDy=0;entryX=1;entryY=0.75;entryDx=0;entryDy=0;fillColor=#dae8fc;strokeColor=#6c8ebf;" parent="1" source="PnxerrXb5VSLIQRsMcsY-16" target="PnxerrXb5VSLIQRsMcsY-12" edge="1">
          <mxGeometry width="50" height="50" relative="1" as="geometry">
            <mxPoint x="690" y="230" as="sourcePoint" />
            <mxPoint x="740" y="180" as="targetPoint" />
            <Array as="points">
              <mxPoint x="590" y="140" />
              <mxPoint x="590" y="200" />
            </Array>
          </mxGeometry>
        </mxCell>
        <mxCell id="PnxerrXb5VSLIQRsMcsY-59" value="points to" style="endArrow=classic;html=1;rounded=0;fillColor=#ffe6cc;strokeColor=#d79b00;labelBackgroundColor=#ffe6cc;fontColor=#d79b00;labelBorderColor=#d79b00;" parent="1" edge="1">
          <mxGeometry x="0.3175" width="50" height="50" relative="1" as="geometry">
            <mxPoint x="1030" y="440" as="sourcePoint" />
            <mxPoint x="1060" y="490" as="targetPoint" />
            <Array as="points">
              <mxPoint x="1083" y="440" />
              <mxPoint x="1083" y="490" />
            </Array>
            <mxPoint as="offset" />
          </mxGeometry>
        </mxCell>
        <mxCell id="PnxerrXb5VSLIQRsMcsY-60" value="points to" style="endArrow=classic;html=1;rounded=0;fillColor=#ffe6cc;strokeColor=#d79b00;fontColor=#d79b00;labelBackgroundColor=#ffe6cc;labelBorderColor=#d79b00;" parent="1" edge="1">
          <mxGeometry width="50" height="50" relative="1" as="geometry">
            <mxPoint x="920" y="600" as="sourcePoint" />
            <mxPoint x="920" y="470" as="targetPoint" />
            <Array as="points">
              <mxPoint x="890" y="600" />
              <mxPoint x="890" y="470" />
            </Array>
          </mxGeometry>
        </mxCell>
        <mxCell id="NkX7nCaBHHFJlHcYDfu2-1" value="" style="endArrow=classic;html=1;rounded=0;exitX=0.005;exitY=0.842;exitDx=0;exitDy=0;exitPerimeter=0;" parent="1" source="PnxerrXb5VSLIQRsMcsY-35" edge="1">
          <mxGeometry width="50" height="50" relative="1" as="geometry">
            <mxPoint x="820" y="450" as="sourcePoint" />
            <mxPoint x="780" y="545" as="targetPoint" />
          </mxGeometry>
        </mxCell>
        <mxCell id="NkX7nCaBHHFJlHcYDfu2-2" value="&lt;span style=&quot;background-color: initial;&quot;&gt;{&lt;/span&gt;&lt;span style=&quot;background-color: initial; white-space: pre;&quot;&gt;&#x9;&lt;/span&gt;&lt;span style=&quot;background-color: initial;&quot;&gt;char&lt;/span&gt;&lt;span style=&quot;background-color: initial; white-space: pre;&quot;&gt;&#x9;&lt;/span&gt;&lt;span style=&quot;background-color: initial;&quot;&gt;*cmd &lt;/span&gt;&lt;span style=&quot;background-color: initial; white-space: pre;&quot;&gt;&#x9;&lt;/span&gt;&lt;span style=&quot;background-color: initial;&quot;&gt;= ls&lt;/span&gt;&lt;br&gt;&lt;div style=&quot;&quot;&gt;&lt;span style=&quot;background-color: initial;&quot;&gt;&lt;span style=&quot;white-space: pre;&quot;&gt;&#x9;&lt;/span&gt;char&lt;span style=&quot;white-space: pre;&quot;&gt;&#x9;&lt;/span&gt;**args &lt;span style=&quot;white-space: pre;&quot;&gt;&#x9;&lt;/span&gt;= -l&lt;/span&gt;&lt;/div&gt;&lt;div style=&quot;&quot;&gt;&lt;span style=&quot;white-space: pre;&quot;&gt;&#x9;&lt;/span&gt;int&lt;span style=&quot;white-space: pre;&quot;&gt;&#x9;&lt;/span&gt;fd[2] &lt;span style=&quot;white-space: pre;&quot;&gt;&#x9;&lt;/span&gt;= 0, 1&lt;/div&gt;&lt;div style=&quot;&quot;&gt;&lt;span style=&quot;white-space: pre;&quot;&gt;&#x9;&lt;/span&gt;int&lt;span style=&quot;white-space: pre;&quot;&gt;&#x9;&lt;/span&gt;pipe_f&amp;nbsp;&lt;span style=&quot;white-space: pre;&quot;&gt;&#x9;&lt;/span&gt;= 1&lt;/div&gt;&lt;div style=&quot;&quot;&gt;&lt;span style=&quot;white-space: pre;&quot;&gt;&#x9;&lt;/span&gt;char&lt;span style=&quot;white-space: pre;&quot;&gt;&#x9;&lt;/span&gt;*infile &lt;span style=&quot;white-space: pre;&quot;&gt;&#x9;&lt;/span&gt;= NULL&lt;/div&gt;&lt;div style=&quot;&quot;&gt;&lt;span style=&quot;white-space: pre;&quot;&gt;&#x9;&lt;/span&gt;char&lt;span style=&quot;white-space: pre;&quot;&gt;&#x9;&lt;/span&gt;*outfile &lt;span style=&quot;white-space: pre;&quot;&gt;&#x9;&lt;/span&gt;= NULL&amp;nbsp;&lt;/div&gt;&lt;div style=&quot;&quot;&gt;&lt;span style=&quot;background-color: initial;&quot;&gt;&lt;span style=&quot;white-space: pre;&quot;&gt;&#x9;&lt;/span&gt;struct name *next&lt;/span&gt;&lt;/div&gt;&lt;div style=&quot;&quot;&gt;&lt;span style=&quot;background-color: initial;&quot;&gt;&lt;span style=&quot;white-space: pre;&quot;&gt;&#x9;&lt;/span&gt;struct name *prev&lt;span style=&quot;white-space: pre;&quot;&gt;&#x9;&lt;span style=&quot;white-space: pre;&quot;&gt;&#x9;&lt;/span&gt;&lt;/span&gt;}&lt;/span&gt;&lt;/div&gt;" style="rounded=1;whiteSpace=wrap;html=1;align=left;fillColor=#ffe6cc;strokeColor=#d79b00;" parent="1" vertex="1">
          <mxGeometry x="430" y="480" width="170" height="140" as="geometry" />
        </mxCell>
        <mxCell id="NkX7nCaBHHFJlHcYDfu2-3" value="&lt;span style=&quot;background-color: initial;&quot;&gt;{&lt;/span&gt;&lt;span style=&quot;background-color: initial; white-space: pre;&quot;&gt;&#x9;&lt;/span&gt;&lt;span style=&quot;background-color: initial;&quot;&gt;char&lt;/span&gt;&lt;span style=&quot;background-color: initial; white-space: pre;&quot;&gt;&#x9;&lt;/span&gt;&lt;span style=&quot;background-color: initial;&quot;&gt;*cmd &lt;/span&gt;&lt;span style=&quot;background-color: initial; white-space: pre;&quot;&gt;&#x9;&lt;/span&gt;&lt;span style=&quot;background-color: initial;&quot;&gt;= grep a&lt;/span&gt;&lt;br&gt;&lt;div style=&quot;&quot;&gt;&lt;span style=&quot;background-color: initial;&quot;&gt;&lt;span style=&quot;white-space: pre;&quot;&gt;&#x9;&lt;/span&gt;char&lt;span style=&quot;white-space: pre;&quot;&gt;&#x9;&lt;/span&gt;**args &lt;span style=&quot;white-space: pre;&quot;&gt;&#x9;&lt;/span&gt;= NULL&lt;/span&gt;&lt;/div&gt;&lt;div style=&quot;&quot;&gt;&lt;span style=&quot;white-space: pre;&quot;&gt;&#x9;&lt;/span&gt;int&lt;span style=&quot;white-space: pre;&quot;&gt;&#x9;&lt;/span&gt;fd[2] &lt;span style=&quot;white-space: pre;&quot;&gt;&#x9;&lt;/span&gt;= 0, 1&lt;/div&gt;&lt;div style=&quot;&quot;&gt;&lt;span style=&quot;white-space: pre;&quot;&gt;&#x9;&lt;/span&gt;int&lt;span style=&quot;white-space: pre;&quot;&gt;&#x9;&lt;/span&gt;pipe_f&amp;nbsp;&lt;span style=&quot;white-space: pre;&quot;&gt;&#x9;&lt;/span&gt;= 0&lt;/div&gt;&lt;div style=&quot;&quot;&gt;&lt;span style=&quot;white-space: pre;&quot;&gt;&#x9;&lt;/span&gt;char&lt;span style=&quot;white-space: pre;&quot;&gt;&#x9;&lt;/span&gt;*infile &lt;span style=&quot;white-space: pre;&quot;&gt;&#x9;&lt;/span&gt;= NULL&lt;/div&gt;&lt;div style=&quot;&quot;&gt;&lt;span style=&quot;white-space: pre;&quot;&gt;&#x9;&lt;/span&gt;char&lt;span style=&quot;white-space: pre;&quot;&gt;&#x9;&lt;/span&gt;*outfile &lt;span style=&quot;white-space: pre;&quot;&gt;&#x9;&lt;/span&gt;= outfile&lt;/div&gt;&lt;div style=&quot;&quot;&gt;&lt;span style=&quot;background-color: initial;&quot;&gt;&lt;span style=&quot;white-space: pre;&quot;&gt;&#x9;&lt;/span&gt;struct name *next&lt;/span&gt;&lt;/div&gt;&lt;div style=&quot;&quot;&gt;&lt;span style=&quot;background-color: initial;&quot;&gt;&lt;span style=&quot;white-space: pre;&quot;&gt;&#x9;&lt;/span&gt;struct name *prev&lt;span style=&quot;white-space: pre;&quot;&gt;&#x9;&lt;span style=&quot;white-space: pre;&quot;&gt;&#x9;&lt;/span&gt;&lt;/span&gt;}&lt;/span&gt;&lt;/div&gt;" style="rounded=1;whiteSpace=wrap;html=1;align=left;fillColor=#ffe6cc;strokeColor=#d79b00;" parent="1" vertex="1">
          <mxGeometry x="610" y="480" width="170" height="140" as="geometry" />
        </mxCell>
        <mxCell id="NkX7nCaBHHFJlHcYDfu2-4" value="points to" style="endArrow=classic;html=1;rounded=0;fillColor=#ffe6cc;strokeColor=#d79b00;labelBackgroundColor=#ffe6cc;fontColor=#d79b00;labelBorderColor=#d79b00;exitX=0.75;exitY=1;exitDx=0;exitDy=0;entryX=0.75;entryY=1;entryDx=0;entryDy=0;startArrow=classic;startFill=1;" parent="1" source="NkX7nCaBHHFJlHcYDfu2-3" target="NkX7nCaBHHFJlHcYDfu2-2" edge="1">
          <mxGeometry x="0.053" width="50" height="50" relative="1" as="geometry">
            <mxPoint x="600" y="640" as="sourcePoint" />
            <mxPoint x="630" y="690" as="targetPoint" />
            <Array as="points">
              <mxPoint x="730" y="640" />
              <mxPoint x="560" y="640" />
            </Array>
            <mxPoint as="offset" />
          </mxGeometry>
        </mxCell>
        <mxCell id="LrFDLf4efG3-qtHMbSmY-9" value="&lt;h1&gt;&lt;span style=&quot;background-color: initial;&quot;&gt;Data Struct Explanation&lt;/span&gt;&lt;/h1&gt;&lt;span style=&quot;background-color: initial;&quot;&gt;char *cmd&amp;nbsp;&lt;/span&gt;→ stores the command;&lt;br&gt;char **args → stores the arguments for the command;&lt;br&gt;int fd[2] → stores the stdin and stdout file descriptors;&lt;br&gt;int pipe_f → a flag used to indicate if there is a pipe connecting this command&#39;s output to the next command&#39;s input;&lt;br&gt;char *infile → stores infile name to open later;&lt;br&gt;char *outfile → stores outfile name to open later;&lt;br&gt;struct name *next → points to next node;&lt;br&gt;struct name *prev → points to previous node;&lt;br&gt;&lt;div&gt;&amp;nbsp;&lt;/div&gt;" style="text;html=1;strokeColor=#b85450;fillColor=#f8cecc;spacing=5;spacingTop=-20;whiteSpace=wrap;overflow=hidden;rounded=0;" vertex="1" parent="1">
          <mxGeometry x="1400" y="50" width="280" height="230" as="geometry" />
        </mxCell>
      </root>
    </mxGraphModel>
  </diagram>
</mxfile>
